# xmcd CD Database Entry
#
# Track frame offsets:
# 150
# 41618
# 83205
# 125975
# 161397
# 211528
# 220279
# 242758
# 268352
# 292741
# 311182
#
# Disc length: 4713 seconds
#
# Revision: 1
# Processed by: cddbd v1.4PL0 Copyright (c) Steve Scherf et al.
# Submitted via: tcd 2.0b
#
DISCID=a212670b
DTITLE=Al Di Meola - anthology
DYEAR=1900
DGENRE=
TTITLE0=Land Of The Midnight Sun
TTITLE1=Elegant Gipsy Suite
TTITLE2=Casino
TTITLE3=Electric Randevous
TTITLE4=Medley - Short Tales Of The Black Forest - fantasia suite for
TTITLE4=two guitars
TTITLE5=Bianca's Midnight Lullaby
TTITLE6=Nena
TTITLE7=Egyptian Danza
TTITLE8=Crusin'
TTITLE9=Island Dreamer
TTITLE10=Al Di's Dream Theme
EXTD=
EXTT0=
EXTT1=
EXTT2=
EXTT3=
EXTT4=
EXTT5=
EXTT6=
EXTT7=
EXTT8=
EXTT9=
EXTT10=
PLAYORDER=
